<?xml version="1.0" standalone="no"?>
<!DOCTYPE svg PUBLIC "-//W3C//DTD SVG 20010904//EN"
 "http://www.w3.org/TR/2001/REC-SVG-20010904/DTD/svg10.dtd">
<svg version="1.0" xmlns="http://www.w3.org/2000/svg"
 width="260.000000pt" height="260.000000pt" viewBox="0 0 260.000000 260.000000"
 preserveAspectRatio="xMidYMid meet">
<metadata>
Created by potrace 1.11, written by Peter Selinger 2001-2013
</metadata>
<g transform="translate(0.000000,260.000000) scale(0.100000,-0.100000)"
fill="#000000" stroke="none">
<path d="M958 2214 c-232 -42 -462 -191 -598 -389 -48 -70 -108 -202 -131
-290 -26 -100 -35 -275 -20 -374 41 -261 193 -496 415 -642 169 -111 333 -155
546 -146 200 8 368 65 512 174 l66 51 111 -105 c104 -98 113 -104 147 -101 45
4 80 43 71 80 -7 25 -96 116 -371 376 l-150 142 -154 0 -154 0 -36 31 c-32 28
-40 31 -89 27 -42 -4 -60 -11 -83 -33 -71 -68 -55 -176 32 -221 50 -26 123
-12 157 30 11 13 37 16 138 16 l125 0 67 -62 c36 -34 67 -67 69 -73 6 -26
-161 -120 -278 -157 -64 -19 -96 -23 -215 -23 -162 0 -225 14 -350 75 -198 98
-353 287 -412 500 -28 103 -25 312 5 410 71 226 213 394 417 491 125 60 189
74 345 74 126 -1 141 -3 230 -33 52 -18 128 -53 167 -78 l73 -45 55 47 c30 26
55 50 55 53 0 9 -120 87 -178 116 -172 85 -388 115 -584 79z"/>
<path d="M1938 2173 c-24 -21 -134 -124 -244 -230 l-201 -193 -126 0 c-93 0
-128 3 -134 13 -17 29 -59 47 -105 47 -129 0 -176 -173 -65 -240 53 -32 129
-21 166 24 11 13 40 16 168 16 l155 0 94 86 c91 84 95 86 114 69 41 -37 120
-215 144 -327 6 -27 8 -28 76 -28 83 0 82 -1 49 125 -26 100 -75 208 -133 290
l-44 63 110 110 c99 98 111 113 110 143 -1 39 -31 69 -68 69 -13 0 -43 -17
-66 -37z"/>
<path d="M669 1407 c-90 -61 -65 -206 41 -238 33 -10 47 -9 84 5 24 9 50 24
56 32 11 12 91 14 537 14 l524 0 -6 -37 c-17 -99 -70 -236 -122 -316 l-18 -27
53 -53 53 -52 20 24 c65 79 139 259 160 388 l12 72 152 3 c176 3 195 11 195
78 0 75 53 70 -793 70 -613 0 -758 2 -764 13 -31 50 -126 63 -184 24z"/>
</g>
</svg>
